<svg width="22" height="22" viewBox="0 0 22 22" fill="none" xmlns="http://www.w3.org/2000/svg">
<path fill-rule="evenodd" clip-rule="evenodd" d="M4.1068 1.4668H4.03346C3.6976 1.4668 3.40866 1.4668 3.15346 1.52693C2.7584 1.62133 2.39718 1.82326 2.10983 2.11035C1.82248 2.39744 1.62022 2.75848 1.52546 3.15346C1.4668 3.40866 1.4668 3.69613 1.4668 4.03346V7.70013C1.4668 8.036 1.4668 8.32493 1.52693 8.58013C1.62133 8.9752 1.82326 9.33642 2.11035 9.62376C2.39744 9.91111 2.75848 10.1134 3.15346 10.2081C3.40866 10.2668 3.69613 10.2668 4.03346 10.2668H7.70013C8.036 10.2668 8.32493 10.2668 8.58013 10.2067C8.9752 10.1123 9.33642 9.91033 9.62376 9.62324C9.91111 9.33615 10.1134 8.97511 10.2081 8.58013C10.2668 8.32493 10.2668 8.03746 10.2668 7.70013V4.03346C10.2668 3.6976 10.2668 3.40866 10.2067 3.15346C10.1123 2.7584 9.91033 2.39718 9.62324 2.10983C9.33615 1.82248 8.97511 1.62022 8.58013 1.52546C8.32493 1.4668 8.03746 1.4668 7.70013 1.4668H4.1068ZM3.4952 2.954C3.55826 2.93933 3.65653 2.93346 4.1068 2.93346H7.6268C8.07853 2.93346 8.17533 2.93786 8.2384 2.954C8.37015 2.9855 8.4906 3.05289 8.58638 3.14868C8.68217 3.24446 8.74956 3.36491 8.78106 3.49666C8.79573 3.55826 8.80013 3.65506 8.80013 4.1068V7.6268C8.80013 8.07853 8.79573 8.17533 8.7796 8.2384C8.74809 8.37015 8.68071 8.4906 8.58492 8.58638C8.48913 8.68217 8.36868 8.74956 8.23693 8.78106C8.1768 8.79426 8.08 8.80013 7.6268 8.80013H4.1068C3.65506 8.80013 3.55826 8.79573 3.4952 8.7796C3.36345 8.74809 3.243 8.68071 3.14721 8.58492C3.05142 8.48913 2.98404 8.36868 2.95253 8.23693C2.93933 8.1768 2.93346 8.08 2.93346 7.6268V4.1068C2.93346 3.65506 2.93786 3.55826 2.954 3.4952C2.9855 3.36345 3.05289 3.243 3.14868 3.14721C3.24446 3.05142 3.36491 2.98404 3.49666 2.95253L3.4952 2.954ZM14.3735 1.4668H14.3001C13.9643 1.4668 13.6753 1.4668 13.4201 1.52693C13.0251 1.62133 12.6638 1.82326 12.3765 2.11035C12.0891 2.39744 11.8869 2.75848 11.7921 3.15346C11.7335 3.40866 11.7335 3.69613 11.7335 4.03346V7.70013C11.7335 8.036 11.7335 8.32493 11.7936 8.58013C11.888 8.9752 12.0899 9.33642 12.377 9.62376C12.6641 9.91111 13.0251 10.1134 13.4201 10.2081C13.6753 10.2668 13.9628 10.2668 14.3001 10.2668H17.9668C18.3027 10.2668 18.5916 10.2668 18.8468 10.2067C19.2419 10.1123 19.6031 9.91033 19.8904 9.62324C20.1778 9.33615 20.38 8.97511 20.4748 8.58013C20.5335 8.32493 20.5335 8.03746 20.5335 7.70013V4.03346C20.5335 3.6976 20.5335 3.40866 20.4733 3.15346C20.3789 2.7584 20.177 2.39718 19.8899 2.10983C19.6028 1.82248 19.2418 1.62022 18.8468 1.52546C18.5916 1.4668 18.3041 1.4668 17.9668 1.4668H14.3735ZM13.7619 2.954C13.8249 2.93933 13.9232 2.93346 14.3735 2.93346H17.8935C18.3452 2.93346 18.442 2.93786 18.5051 2.954C18.6368 2.9855 18.7573 3.05289 18.8531 3.14868C18.9488 3.24446 19.0162 3.36491 19.0477 3.49666C19.0624 3.55826 19.0668 3.65506 19.0668 4.1068V7.6268C19.0668 8.07853 19.0609 8.17533 19.0463 8.2384C19.0148 8.37015 18.9474 8.4906 18.8516 8.58638C18.7558 8.68217 18.6353 8.74956 18.5036 8.78106C18.442 8.79573 18.3452 8.80013 17.8935 8.80013H14.3735C13.9217 8.80013 13.8249 8.79573 13.7619 8.7796C13.6301 8.74809 13.5097 8.68071 13.4139 8.58492C13.3181 8.48913 13.2507 8.36868 13.2192 8.23693C13.206 8.1768 13.2001 8.08 13.2001 7.6268V4.1068C13.2001 3.65506 13.2045 3.55826 13.2207 3.4952C13.2522 3.36345 13.3196 3.243 13.4153 3.14721C13.5111 3.05142 13.6316 2.98404 13.7633 2.95253L13.7619 2.954ZM4.03346 11.7335H7.70013C8.036 11.7335 8.32493 11.7335 8.58013 11.7936C8.9752 11.888 9.33642 12.0899 9.62376 12.377C9.91111 12.6641 10.1134 13.0251 10.2081 13.4201C10.2668 13.6753 10.2668 13.9628 10.2668 14.3001V17.9668C10.2668 18.3027 10.2668 18.5916 10.2067 18.8468C10.1123 19.2419 9.91033 19.6031 9.62324 19.8904C9.33615 20.1778 8.97511 20.38 8.58013 20.4748C8.32493 20.5335 8.03746 20.5335 7.70013 20.5335H4.03346C3.6976 20.5335 3.40866 20.5335 3.15346 20.4733C2.7584 20.3789 2.39718 20.177 2.10983 19.8899C1.82248 19.6028 1.62022 19.2418 1.52546 18.8468C1.4668 18.5916 1.4668 18.3041 1.4668 17.9668V14.3001C1.4668 13.9643 1.4668 13.6753 1.52693 13.4201C1.62133 13.0251 1.82326 12.6638 2.11035 12.3765C2.39744 12.0891 2.75848 11.8869 3.15346 11.7921C3.40866 11.7335 3.69613 11.7335 4.03346 11.7335ZM4.1068 13.2001C3.65506 13.2001 3.55826 13.2045 3.4952 13.2207C3.36345 13.2522 3.243 13.3196 3.14721 13.4153C3.05142 13.5111 2.98404 13.6316 2.95253 13.7633C2.93933 13.8235 2.93346 13.9203 2.93346 14.3735V17.8935C2.93346 18.3452 2.93786 18.442 2.954 18.5051C2.9855 18.6368 3.05289 18.7573 3.14868 18.8531C3.24446 18.9488 3.36491 19.0162 3.49666 19.0477C3.55826 19.0624 3.65506 19.0668 4.1068 19.0668H7.6268C8.07853 19.0668 8.17533 19.0609 8.2384 19.0463C8.37015 19.0148 8.4906 18.9474 8.58638 18.8516C8.68217 18.7558 8.74956 18.6353 8.78106 18.5036C8.79573 18.442 8.80013 18.3452 8.80013 17.8935V14.3735C8.80013 13.9217 8.79573 13.8249 8.7796 13.7619C8.74809 13.6301 8.68071 13.5097 8.58492 13.4139C8.48913 13.3181 8.36868 13.2507 8.23693 13.2192C8.1768 13.206 8.08 13.2001 7.6268 13.2001H4.1068ZM14.3735 11.7335H14.3001C13.9643 11.7335 13.6753 11.7335 13.4201 11.7936C13.0251 11.888 12.6638 12.0899 12.3765 12.377C12.0891 12.6641 11.8869 13.0251 11.7921 13.4201C11.7335 13.6753 11.7335 13.9628 11.7335 14.3001V17.9668C11.7335 18.3027 11.7335 18.5916 11.7936 18.8468C11.888 19.2419 12.0899 19.6031 12.377 19.8904C12.6641 20.1778 13.0251 20.38 13.4201 20.4748C13.6753 20.5349 13.9643 20.5349 14.3001 20.5349H17.9668C18.3027 20.5349 18.5916 20.5349 18.8468 20.4748C19.2416 20.3802 19.6025 20.1781 19.8896 19.891C20.1767 19.604 20.3787 19.2431 20.4733 18.8483C20.5335 18.5931 20.5335 18.3041 20.5335 17.9683V14.3001C20.5335 13.9643 20.5335 13.6753 20.4733 13.4201C20.3789 13.0251 20.177 12.6638 19.8899 12.3765C19.6028 12.0891 19.2418 11.8869 18.8468 11.7921C18.5916 11.7335 18.3041 11.7335 17.9668 11.7335H14.3735ZM13.7619 13.2207C13.8249 13.206 13.9232 13.2001 14.3735 13.2001H17.8935C18.3452 13.2001 18.442 13.2045 18.5051 13.2207C18.6368 13.2522 18.7573 13.3196 18.8531 13.4153C18.9488 13.5111 19.0162 13.6316 19.0477 13.7633C19.0624 13.8249 19.0668 13.9217 19.0668 14.3735V17.8935C19.0668 18.3452 19.0609 18.442 19.0463 18.5051C19.0148 18.6368 18.9474 18.7573 18.8516 18.8531C18.7558 18.9488 18.6353 19.0162 18.5036 19.0477C18.442 19.0624 18.3452 19.0668 17.8935 19.0668H14.3735C13.9217 19.0668 13.8249 19.0609 13.7619 19.0463C13.6301 19.0148 13.5097 18.9474 13.4139 18.8516C13.3181 18.7558 13.2507 18.6353 13.2192 18.5036C13.206 18.4435 13.2001 18.3467 13.2001 17.8935V14.3735C13.2001 13.9217 13.2045 13.8249 13.2207 13.7619C13.2522 13.6301 13.3196 13.5097 13.4153 13.4139C13.5111 13.3181 13.6316 13.2507 13.7633 13.2192L13.7619 13.2207Z" fill="#939393"/>
</svg>
