<svg width="22" height="22" viewBox="0 0 22 22" fill="none" xmlns="http://www.w3.org/2000/svg">
<path d="M6.59267 12.4804H7.57167C7.67006 12.4804 7.76172 12.4636 7.84667 12.43C7.93222 12.3958 8.01472 12.3386 8.09417 12.2586L12.7032 7.6505C12.782 7.56006 12.841 7.46533 12.8801 7.36633C12.9192 7.26672 12.9388 7.16803 12.9388 7.07025C12.9388 6.97247 12.9183 6.87592 12.8773 6.78058C12.8364 6.68464 12.7783 6.59144 12.7032 6.501L11.8598 5.63017C11.7816 5.55133 11.6906 5.49236 11.5867 5.45325C11.4834 5.41414 11.3813 5.39458 11.2805 5.39458C11.1827 5.39458 11.0843 5.41414 10.9853 5.45325C10.8857 5.49236 10.791 5.55133 10.7012 5.63017L6.07383 10.2392C5.99439 10.3192 5.93725 10.4017 5.90242 10.4867C5.86881 10.5722 5.852 10.6642 5.852 10.7626V11.7416C5.852 11.9542 5.92228 12.1309 6.06283 12.2714C6.20339 12.412 6.37969 12.4822 6.59175 12.4822M6.66233 11.671V10.8002L9.823 7.6395L10.2465 8.08683L10.6773 8.52683L7.53317 11.671H6.66233ZM10.2465 8.08683L10.6773 8.52683L9.823 7.6395L10.2465 8.08683ZM10.824 12.4813H15.6878C15.8186 12.4813 15.9277 12.4376 16.0151 12.3502C16.1025 12.2629 16.1462 12.1538 16.1462 12.023C16.1462 11.8928 16.1025 11.7841 16.0151 11.6967C15.9277 11.6087 15.8186 11.5647 15.6878 11.5647H11.7425L10.824 12.4813ZM5.5715 15.5833L4.0095 17.1453C3.77789 17.3769 3.51022 17.4301 3.2065 17.3048C2.90217 17.1796 2.75 16.9519 2.75 16.6219V4.23042C2.75 3.80875 2.89147 3.45675 3.17442 3.17442C3.45675 2.89147 3.80875 2.75 4.23042 2.75H17.7696C18.1913 2.75 18.5433 2.89147 18.8256 3.17442C19.1085 3.45675 19.25 3.80875 19.25 4.23042V14.1029C19.25 14.5246 19.1088 14.8769 18.8265 15.1598C18.5436 15.4422 18.1913 15.5833 17.7696 15.5833H5.5715ZM5.18008 14.6667H17.7705C17.9111 14.6667 18.0403 14.608 18.1583 14.4907C18.2756 14.3727 18.3342 14.2435 18.3342 14.1029V4.23042C18.3342 4.08986 18.2756 3.96061 18.1583 3.84267C18.0397 3.72533 17.9101 3.66667 17.7696 3.66667H4.23042C4.08986 3.66667 3.96061 3.72533 3.84267 3.84267C3.72533 3.96061 3.66667 4.08986 3.66667 4.23042V16.1746L5.18008 14.6667Z" fill="#474747"/>
</svg>
