<svg width="22" height="22" viewBox="0 0 22 22" fill="none" xmlns="http://www.w3.org/2000/svg">
<path fill-rule="evenodd" clip-rule="evenodd" d="M11 7.5625C10.0883 7.5625 9.21398 7.92466 8.56932 8.56932C7.92466 9.21398 7.5625 10.0883 7.5625 11C7.5625 11.9117 7.92466 12.786 8.56932 13.4307C9.21398 14.0753 10.0883 14.4375 11 14.4375C11.9117 14.4375 12.786 14.0753 13.4307 13.4307C14.0753 12.786 14.4375 11.9117 14.4375 11C14.4375 10.0883 14.0753 9.21398 13.4307 8.56932C12.786 7.92466 11.9117 7.5625 11 7.5625ZM8.9375 11C8.9375 10.453 9.1548 9.92839 9.54159 9.54159C9.92839 9.1548 10.453 8.9375 11 8.9375C11.547 8.9375 12.0716 9.1548 12.4584 9.54159C12.8452 9.92839 13.0625 10.453 13.0625 11C13.0625 11.547 12.8452 12.0716 12.4584 12.4584C12.0716 12.8452 11.547 13.0625 11 13.0625C10.453 13.0625 9.92839 12.8452 9.54159 12.4584C9.1548 12.0716 8.9375 11.547 8.9375 11Z" fill="#4F4F4F"/>
<path fill-rule="evenodd" clip-rule="evenodd" d="M10.9773 1.14551C10.5694 1.14551 10.2293 1.14551 9.95062 1.16384C9.66578 1.1757 9.38485 1.23455 9.1192 1.33801C8.81326 1.46459 8.53526 1.6502 8.30106 1.88424C8.06687 2.11828 7.88107 2.39616 7.75428 2.70201C7.62137 3.02284 7.58562 3.36201 7.57095 3.73051C7.56948 3.86528 7.53381 3.99746 7.46727 4.11467C7.40073 4.23188 7.30551 4.33026 7.19053 4.40059C7.07218 4.46522 6.93933 4.4987 6.80448 4.4979C6.66963 4.4971 6.5372 4.46204 6.41962 4.39601C6.09328 4.22367 5.78162 4.08526 5.43695 4.03942C5.10873 3.99625 4.77523 4.01815 4.45547 4.10387C4.13572 4.18959 3.83598 4.33745 3.57337 4.53901C3.35133 4.71765 3.16024 4.93165 3.00778 5.17242C2.85195 5.40526 2.68145 5.69951 2.47795 6.05242L2.45503 6.09276C2.25062 6.44567 2.08103 6.73992 1.9582 6.99109C1.82987 7.25326 1.72903 7.51176 1.69237 7.79776C1.60492 8.4605 1.78429 9.13084 2.19103 9.66134C2.40278 9.93726 2.6787 10.138 2.99037 10.3342C3.10656 10.4029 3.20337 10.5 3.27169 10.6164C3.34 10.7328 3.37757 10.8647 3.38087 10.9997C3.37757 11.1346 3.34 11.2665 3.27169 11.3829C3.20337 11.4993 3.10656 11.5965 2.99037 11.6652C2.6787 11.8613 2.4037 12.0621 2.19103 12.338C1.98947 12.6006 1.84161 12.9004 1.75589 13.2201C1.67018 13.5399 1.64828 13.8734 1.69145 14.2016C1.72903 14.4876 1.82895 14.7461 1.95728 15.0083C2.08103 15.2594 2.25062 15.5537 2.45503 15.9066L2.47795 15.9469C2.68145 16.2998 2.85195 16.5941 3.00778 16.8269C3.17003 17.068 3.3442 17.2853 3.57337 17.4594C3.83591 17.6611 4.13562 17.8092 4.45537 17.895C4.77513 17.9809 5.10867 18.003 5.43695 17.9599C5.78162 17.9141 6.09328 17.7766 6.41962 17.6033C6.53706 17.5374 6.66934 17.5024 6.80403 17.5016C6.93872 17.5008 7.0714 17.5342 7.18962 17.5988C7.30523 17.6685 7.40105 17.7668 7.46796 17.884C7.53487 18.0013 7.57064 18.1338 7.57187 18.2688C7.58562 18.6373 7.62137 18.9765 7.7552 19.2973C7.88178 19.6033 8.06739 19.8813 8.30143 20.1155C8.53547 20.3497 8.81335 20.5355 9.1192 20.6623C9.38503 20.7723 9.66003 20.8153 9.95062 20.8346C10.2293 20.8538 10.5694 20.8538 10.9773 20.8538H11.0231C11.431 20.8538 11.7711 20.8538 12.0498 20.8355C12.3413 20.8153 12.6154 20.7723 12.8812 20.6613C13.1871 20.5348 13.4651 20.3491 13.6993 20.1151C13.9335 19.8811 14.1193 19.6032 14.2461 19.2973C14.379 18.9765 14.4148 18.6373 14.4295 18.2688C14.4308 18.1339 14.4664 18.0015 14.5329 17.8842C14.5995 17.7668 14.6948 17.6683 14.8099 17.5978C14.9283 17.5334 15.0612 17.5 15.196 17.501C15.3309 17.5019 15.4633 17.5372 15.5808 17.6033C15.9071 17.7757 16.2188 17.9141 16.5635 17.959C17.2262 18.0465 17.8965 17.8671 18.427 17.4603C18.6562 17.2843 18.8304 17.068 18.9926 16.8269C19.1485 16.5941 19.319 16.2998 19.5225 15.9469L19.5454 15.9066C19.7498 15.5537 19.9194 15.2594 20.0422 15.0083C20.1705 14.7461 20.2714 14.4867 20.308 14.2016C20.3955 13.5388 20.2161 12.8685 19.8094 12.338C19.5976 12.0621 19.3217 11.8613 19.01 11.6652C18.8938 11.5965 18.797 11.4993 18.7287 11.3829C18.6604 11.2665 18.6228 11.1346 18.6195 10.9997C18.6195 10.7448 18.7589 10.4918 19.01 10.3342C19.3217 10.138 19.5967 9.93726 19.8094 9.66134C20.0109 9.39873 20.1588 9.09899 20.2445 8.77924C20.3302 8.45948 20.3521 8.12598 20.309 7.79776C20.2653 7.51608 20.1755 7.24352 20.0431 6.99109C19.8866 6.68653 19.7206 6.38694 19.5454 6.09276L19.5225 6.05242C19.355 5.75367 19.1783 5.4602 18.9926 5.17242C18.8402 4.93191 18.6491 4.7182 18.427 4.53992C18.1645 4.3382 17.8648 4.19018 17.545 4.1043C17.2253 4.01843 16.8917 3.99638 16.5635 4.03942C16.2188 4.08526 15.9071 4.22276 15.5808 4.39601C15.4633 4.46187 15.331 4.49685 15.1964 4.49765C15.0617 4.49845 14.929 4.46506 14.8108 4.40059C14.6955 4.33048 14.5999 4.2322 14.533 4.11497C14.4661 3.99775 14.4302 3.86545 14.4285 3.73051C14.4148 3.36201 14.379 3.02284 14.2452 2.70201C14.1186 2.39607 13.933 2.11807 13.699 1.88387C13.4649 1.64968 13.1871 1.46388 12.8812 1.33709C12.6154 1.22709 12.3404 1.18401 12.0498 1.16476C11.7711 1.14551 11.431 1.14551 11.0231 1.14551H10.9773ZM9.64537 2.60759C9.71595 2.57826 9.8232 2.55167 10.0441 2.53609C10.2705 2.52051 10.5639 2.52051 11.0002 2.52051C11.4365 2.52051 11.7299 2.52051 11.9563 2.53609C12.1772 2.55167 12.2845 2.57826 12.355 2.60759C12.6365 2.72401 12.8592 2.94676 12.9756 3.22817C13.0123 3.31617 13.0425 3.45459 13.0545 3.78184C13.082 4.50784 13.4569 5.20726 14.1224 5.59134C14.7879 5.97634 15.5808 5.95068 16.2234 5.61151C16.513 5.45842 16.6478 5.41534 16.7431 5.40342C17.0443 5.36363 17.349 5.44507 17.5901 5.62984C17.6506 5.67659 17.7276 5.75634 17.8514 5.93967C17.9788 6.12851 18.1255 6.38242 18.3436 6.76009C18.5618 7.13776 18.7075 7.39259 18.8075 7.59609C18.9055 7.79501 18.9358 7.90134 18.945 7.97742C18.9847 8.27861 18.9033 8.58327 18.7185 8.82442C18.6599 8.90051 18.5554 8.99584 18.2785 9.17001C17.6625 9.55684 17.2445 10.2315 17.2445 10.9997C17.2445 11.7678 17.6625 12.4425 18.2785 12.8293C18.5554 13.0035 18.6599 13.0988 18.7185 13.1749C18.9037 13.416 18.9844 13.7203 18.945 14.0219C18.9358 14.098 18.9046 14.2053 18.8075 14.4033C18.7075 14.6077 18.5618 14.8616 18.3436 15.2393C18.1255 15.6169 17.9779 15.8708 17.8514 16.0597C17.7276 16.243 17.6506 16.3228 17.5901 16.3695C17.349 16.5543 17.0443 16.6357 16.7431 16.5959C16.6478 16.584 16.514 16.5409 16.2234 16.3878C15.5817 16.0487 14.7879 16.023 14.1224 16.4071C13.4569 16.7921 13.082 17.4915 13.0545 18.2175C13.0425 18.5448 13.0123 18.6832 12.9756 18.7712C12.918 18.9103 12.8336 19.0368 12.7271 19.1432C12.6206 19.2497 12.4942 19.3342 12.355 19.3918C12.2845 19.4211 12.1772 19.4477 11.9563 19.4633C11.7299 19.4788 11.4365 19.4788 11.0002 19.4788C10.5639 19.4788 10.2705 19.4788 10.0441 19.4633C9.8232 19.4477 9.71595 19.4211 9.64537 19.3918C9.50622 19.3342 9.37979 19.2497 9.27331 19.1432C9.16682 19.0368 9.08237 18.9103 9.02479 18.7712C8.98812 18.6832 8.95787 18.5448 8.94595 18.2175C8.91845 17.4915 8.54353 16.7921 7.87803 16.408C7.21253 16.023 6.41962 16.0487 5.77703 16.3878C5.48737 16.5409 5.35262 16.584 5.25728 16.5959C4.9561 16.6357 4.65144 16.5543 4.41028 16.3695C4.34978 16.3228 4.27278 16.243 4.14903 16.0597C3.97662 15.7913 3.81246 15.5177 3.65678 15.2393C3.43862 14.8616 3.29287 14.6068 3.19295 14.4033C3.09487 14.2043 3.06462 14.098 3.05545 14.0219C3.01565 13.7207 3.09709 13.4161 3.28187 13.1749C3.34053 13.0988 3.44503 13.0035 3.72187 12.8293C4.33787 12.4425 4.75587 11.7678 4.75587 10.9997C4.75587 10.2315 4.33787 9.55684 3.72187 9.17001C3.44503 8.99584 3.34053 8.90051 3.28187 8.82442C3.09709 8.58327 3.01565 8.27861 3.05545 7.97742C3.06462 7.90134 3.09578 7.79409 3.19295 7.59609C3.29287 7.39167 3.43862 7.13776 3.65678 6.76009C3.87495 6.38242 4.02253 6.12851 4.14903 5.93967C4.27278 5.75634 4.34978 5.67659 4.41028 5.62984C4.65144 5.44507 4.9561 5.36363 5.25728 5.40342C5.35262 5.41534 5.48645 5.45842 5.77703 5.61151C6.4187 5.95068 7.21253 5.97634 7.87803 5.59134C8.54353 5.20726 8.91845 4.50784 8.94595 3.78184C8.95787 3.45459 8.98812 3.31617 9.02479 3.22817C9.1412 2.94676 9.36395 2.72401 9.64537 2.60759Z" fill="#4F4F4F"/>
</svg>
