<svg width="22" height="22" viewBox="0 0 22 22" fill="none" xmlns="http://www.w3.org/2000/svg">
<path d="M14.6028 7.11328C14.6028 7.01875 14.5254 6.94141 14.4309 6.94141H13.26C13.1956 6.94141 13.1354 6.97793 13.1075 7.03594L11.2877 10.6625H11.2169L9.39712 7.03594C9.38287 7.00766 9.36109 6.98386 9.33417 6.96718C9.30725 6.9505 9.27625 6.94158 9.24459 6.94141H8.04791C8.01998 6.94141 7.99205 6.94785 7.96626 6.96289C7.88248 7.00801 7.8524 7.11328 7.89751 7.19492L10.1297 11.3113H8.90513C8.8106 11.3113 8.73326 11.3887 8.73326 11.4832V12.0654C8.73326 12.16 8.8106 12.2373 8.90513 12.2373H10.5379V13.0752H8.90513C8.8106 13.0752 8.73326 13.1525 8.73326 13.2471V13.8293C8.73326 13.9238 8.8106 14.0012 8.90513 14.0012H10.5379V15.3633C10.5379 15.4578 10.6153 15.5352 10.7098 15.5352H11.7819C11.8764 15.5352 11.9538 15.4578 11.9538 15.3633V13.999H13.593C13.6876 13.999 13.7649 13.9217 13.7649 13.8271V13.2449C13.7649 13.1504 13.6876 13.073 13.593 13.073H11.9538V12.2352H13.593C13.6876 12.2352 13.7649 12.1578 13.7649 12.0633V11.4811C13.7649 11.3865 13.6876 11.3092 13.593 11.3092H12.3555L14.5835 7.19277C14.5942 7.16914 14.6028 7.14121 14.6028 7.11328ZM3.63072 11.0707C3.67107 9.11264 4.46799 7.24624 5.85435 5.86289C6.55259 5.16465 7.3647 4.61465 8.26919 4.23223C9.20591 3.83691 10.2006 3.63496 11.2254 3.63496C12.2524 3.63496 13.2471 3.83477 14.1817 4.23223C15.0862 4.61465 15.8983 5.16465 16.5965 5.86289C16.8114 6.07773 17.0112 6.30332 17.196 6.5375L16.1217 7.37754C16.0961 7.39734 16.0767 7.42395 16.0655 7.45433C16.0544 7.48471 16.0521 7.51761 16.0588 7.54925C16.0655 7.5809 16.081 7.61 16.1036 7.63321C16.1261 7.65643 16.1548 7.6728 16.1862 7.68047L19.5549 8.50332C19.6624 8.5291 19.7676 8.44746 19.7676 8.33789L19.7848 4.86816C19.7848 4.72422 19.6194 4.64258 19.5077 4.73281L18.4807 5.53633C16.7963 3.38145 14.1731 2 11.2276 2C6.18951 2 2.09244 6.04121 2.00005 11.0621C1.99948 11.085 2.0035 11.1079 2.01188 11.1292C2.02026 11.1506 2.03283 11.17 2.04885 11.1864C2.06487 11.2028 2.08401 11.2159 2.10515 11.2248C2.12629 11.2337 2.14899 11.2383 2.17193 11.2383H3.46099C3.55337 11.2383 3.62857 11.1631 3.63072 11.0707ZM20.3047 11.2383H19.0157C18.9233 11.2383 18.846 11.3135 18.8438 11.4059C18.8034 13.3639 18.0065 15.2303 16.6202 16.6137C15.9283 17.3084 15.1082 17.8622 14.2053 18.2443C13.2686 18.6396 12.2739 18.8416 11.2491 18.8416C10.2243 18.8416 9.2274 18.6418 8.29283 18.2443C7.38993 17.8622 6.56981 17.3084 5.87798 16.6137C5.66314 16.3988 5.46334 16.1732 5.27857 15.9391L6.35064 15.099C6.37623 15.0792 6.39571 15.0526 6.40685 15.0222C6.41798 14.9919 6.42032 14.959 6.41359 14.9273C6.40685 14.8957 6.39133 14.8666 6.36879 14.8433C6.34625 14.8201 6.31762 14.8038 6.28619 14.7961L2.91744 13.9732C2.81001 13.9475 2.70474 14.0291 2.70474 14.1387L2.68755 17.6127C2.68755 17.7566 2.85298 17.8383 2.9647 17.748L3.99166 16.9445C5.68033 19.0951 8.30357 20.4766 11.2491 20.4766C16.2872 20.4766 20.3842 16.4354 20.4766 11.4145C20.4772 11.3915 20.4732 11.3687 20.4648 11.3474C20.4564 11.326 20.4438 11.3065 20.4278 11.2901C20.4118 11.2737 20.3927 11.2607 20.3715 11.2518C20.3504 11.2429 20.3277 11.2383 20.3047 11.2383Z" fill="#2E396D" fill-opacity="0.7"/>
</svg>
