<svg width="22" height="22" viewBox="0 0 22 22" fill="none" xmlns="http://www.w3.org/2000/svg">
<path d="M14.4495 3.6665C14.9602 3.66652 15.4607 3.80871 15.8951 4.07714C16.3295 4.34557 16.6805 4.72965 16.909 5.18634L18.1767 7.72092C18.4004 7.62925 18.6231 7.53667 18.8395 7.42942C19.0571 7.32075 19.3089 7.30296 19.5396 7.37998C19.7703 7.45699 19.961 7.6225 20.0696 7.84009C20.1783 8.05768 20.1961 8.30952 20.1191 8.54022C20.0421 8.77092 19.8766 8.96158 19.659 9.07025C19.2061 9.29575 18.999 9.36542 18.999 9.36542L19.8753 11.119C20.0669 11.5013 20.1659 11.922 20.1659 12.3492V14.6665C20.1664 15.0535 20.0851 15.4362 19.9271 15.7895C19.7691 16.1428 19.538 16.4586 19.2492 16.7162V17.8748C19.2492 18.2395 19.1043 18.5892 18.8465 18.8471C18.5886 19.105 18.2389 19.2498 17.8742 19.2498C17.5095 19.2498 17.1598 19.105 16.9019 18.8471C16.6441 18.5892 16.4992 18.2395 16.4992 17.8748V17.4165H5.49921V17.8748C5.49921 18.2395 5.35435 18.5892 5.09648 18.8471C4.83862 19.105 4.48889 19.2498 4.12421 19.2498C3.75954 19.2498 3.4098 19.105 3.15194 18.8471C2.89408 18.5892 2.74921 18.2395 2.74921 17.8748V16.7162C2.18638 16.212 1.83255 15.4805 1.83255 14.6665V12.3492C1.83272 11.9224 1.9322 11.5016 2.12313 11.1199L2.99946 9.36542C2.77744 9.27335 2.55797 9.17523 2.3413 9.07117C2.23325 9.01756 2.13684 8.94316 2.0576 8.85223C1.97836 8.76129 1.91785 8.65561 1.87953 8.54125C1.8412 8.42688 1.82583 8.30608 1.83429 8.18576C1.84274 8.06544 1.87486 7.94797 1.9288 7.84009C2.03987 7.62363 2.2316 7.45953 2.46262 7.38321C2.69363 7.3069 2.94539 7.32448 3.16355 7.43217C3.37896 7.53667 3.59988 7.63109 3.82171 7.72092L5.08946 5.18634C5.31788 4.72965 5.66895 4.34557 6.10333 4.07714C6.53771 3.80871 7.03825 3.66652 7.54888 3.6665H14.4495ZM17.2637 9.99517C15.7054 10.4874 13.488 10.9998 10.9992 10.9998C8.51046 10.9998 6.29305 10.4865 4.73471 9.99517L3.76305 11.9385C3.69916 12.066 3.66589 12.2066 3.66588 12.3492V14.6665C3.66588 14.9096 3.76246 15.1428 3.93436 15.3147C4.10627 15.4866 4.33943 15.5832 4.58255 15.5832H17.4159C17.659 15.5832 17.8922 15.4866 18.0641 15.3147C18.236 15.1428 18.3325 14.9096 18.3325 14.6665V12.3492C18.3324 12.2069 18.2991 12.0666 18.2354 11.9394L17.2637 9.99517ZM6.87421 11.9165C7.23889 11.9165 7.58862 12.0614 7.84648 12.3192C8.10435 12.5771 8.24921 12.9268 8.24921 13.2915C8.24921 13.6562 8.10435 14.0059 7.84648 14.2638C7.58862 14.5216 7.23889 14.6665 6.87421 14.6665C6.50954 14.6665 6.1598 14.5216 5.90194 14.2638C5.64408 14.0059 5.49921 13.6562 5.49921 13.2915C5.49921 12.9268 5.64408 12.5771 5.90194 12.3192C6.1598 12.0614 6.50954 11.9165 6.87421 11.9165ZM15.1242 11.9165C15.4889 11.9165 15.8386 12.0614 16.0965 12.3192C16.3543 12.5771 16.4992 12.9268 16.4992 13.2915C16.4992 13.6562 16.3543 14.0059 16.0965 14.2638C15.8386 14.5216 15.4889 14.6665 15.1242 14.6665C14.7595 14.6665 14.4098 14.5216 14.1519 14.2638C13.8941 14.0059 13.7492 13.6562 13.7492 13.2915C13.7492 12.9268 13.8941 12.5771 14.1519 12.3192C14.4098 12.0614 14.7595 11.9165 15.1242 11.9165ZM14.4495 5.49984H7.54888C7.37869 5.49993 7.21188 5.5474 7.06715 5.63693C6.92241 5.72646 6.80545 5.85451 6.72938 6.00675L5.56521 8.33234C6.98421 8.75859 8.89638 9.1665 10.9992 9.1665C13.102 9.1665 15.0142 8.75859 16.4323 8.33234L15.269 6.00675C15.193 5.85451 15.076 5.72646 14.9313 5.63693C14.7865 5.5474 14.6197 5.49993 14.4495 5.49984Z" fill="#4F4F4F"/>
</svg>
