<svg width="20" height="20" viewBox="0 0 20 20" fill="none" xmlns="http://www.w3.org/2000/svg">
<path d="M8.64477 1.40537C8.81659 1.21661 9.02593 1.06582 9.25939 0.962634C9.49285 0.85945 9.74528 0.806152 10.0005 0.806152C10.2558 0.806152 10.5082 0.85945 10.7417 0.962634C10.9751 1.06582 11.1845 1.21661 11.3563 1.40537L12.2913 2.43203C12.4728 2.63133 12.6961 2.78814 12.9451 2.89129C13.1942 2.99443 13.463 3.04138 13.7323 3.02878L15.1192 2.96462C15.374 2.95261 15.6286 2.99393 15.8666 3.08594C16.1046 3.17794 16.3207 3.31861 16.5012 3.49894C16.6817 3.67926 16.8226 3.89528 16.9148 4.13317C17.0071 4.37106 17.0486 4.62558 17.0369 4.88045L16.9718 6.26828C16.9592 6.53757 17.0061 6.80633 17.1093 7.05541C17.2124 7.30448 17.3692 7.52774 17.5685 7.70928L18.5952 8.64428C18.7839 8.8161 18.9347 9.02544 19.0379 9.2589C19.1411 9.49236 19.1944 9.74479 19.1944 10C19.1944 10.2553 19.1411 10.5077 19.0379 10.7412C18.9347 10.9746 18.7839 11.184 18.5952 11.3558L17.5685 12.2908C17.3692 12.4723 17.2124 12.6956 17.1093 12.9447C17.0061 13.1937 16.9592 13.4625 16.9718 13.7318L17.0359 15.1187C17.0479 15.3736 17.0066 15.6281 16.9146 15.8661C16.8226 16.1041 16.6819 16.3202 16.5016 16.5007C16.3213 16.6812 16.1053 16.8221 15.8674 16.9143C15.6295 17.0066 15.375 17.0481 15.1201 17.0364L13.7323 16.9713C13.463 16.9587 13.1942 17.0056 12.9451 17.1088C12.6961 17.2119 12.4728 17.3687 12.2913 17.568L11.3563 18.5947C11.1845 18.7835 10.9751 18.9342 10.7417 19.0374C10.5082 19.1406 10.2558 19.1939 10.0005 19.1939C9.74528 19.1939 9.49285 19.1406 9.25939 19.0374C9.02593 18.9342 8.81659 18.7835 8.64477 18.5947L7.70977 17.568C7.52823 17.3687 7.30497 17.2119 7.05589 17.1088C6.80682 17.0056 6.53806 16.9587 6.26877 16.9713L4.88185 17.0354C4.62699 17.0475 4.37243 17.0061 4.13446 16.9141C3.89648 16.8221 3.68033 16.6815 3.49983 16.5011C3.31933 16.3208 3.17846 16.1048 3.08622 15.8669C2.99399 15.629 2.95242 15.3745 2.96419 15.1196L3.02927 13.7318C3.04187 13.4625 2.99492 13.1937 2.89177 12.9447C2.78863 12.6956 2.63182 12.4723 2.43252 12.2908L1.40585 11.3558C1.2171 11.184 1.06631 10.9746 0.963122 10.7412C0.859939 10.5077 0.806641 10.2553 0.806641 10C0.806641 9.74479 0.859939 9.49236 0.963122 9.2589C1.06631 9.02544 1.2171 8.8161 1.40585 8.64428L2.43252 7.70928C2.63182 7.52774 2.78863 7.30448 2.89177 7.05541C2.99492 6.80633 3.04187 6.53757 3.02927 6.26828L2.9651 4.88137C2.9531 4.62651 2.99442 4.37194 3.08642 4.13397C3.17843 3.89599 3.3191 3.67984 3.49942 3.49934C3.67975 3.31884 3.89577 3.17797 4.13366 3.08573C4.37154 2.9935 4.62607 2.95193 4.88094 2.9637L6.26877 3.02878C6.53806 3.04138 6.80682 2.99443 7.05589 2.89129C7.30497 2.78814 7.52823 2.63133 7.70977 2.43203L8.64477 1.40537Z" stroke="#4F4F4F" stroke-width="1.375"/>
<path d="M7.25 9.99984L9.08333 11.8332L12.75 8.1665" stroke="#4F4F4F" stroke-width="1.375" stroke-linecap="round" stroke-linejoin="round"/>
</svg>
